<svg width="25" height="25" viewBox="0 0 25 25" fill="none" xmlns="http://www.w3.org/2000/svg">
<path d="M18.7451 5.38379C16.1451 9.93379 11.1351 12.5438 5.91512 12.0738L2.74512 11.7838" stroke="#8C8C8C" stroke-miterlimit="10" stroke-linecap="round" stroke-linejoin="round"/>
<path d="M5.74512 19.964C8.34512 15.414 13.3551 12.804 18.5751 13.274L21.7451 13.564" stroke="#8C8C8C" stroke-miterlimit="10" stroke-linecap="round" stroke-linejoin="round"/>
<path d="M12.2451 22.5938C17.768 22.5938 22.2451 18.1166 22.2451 12.5938C22.2451 7.0709 17.768 2.59375 12.2451 2.59375C6.72227 2.59375 2.24512 7.0709 2.24512 12.5938C2.24512 18.1166 6.72227 22.5938 12.2451 22.5938Z" stroke="#8C8C8C" stroke-miterlimit="10" stroke-linecap="round" stroke-linejoin="round"/>
<path d="M7.875 3.59375L11.055 7.54375C13.185 10.1837 14.695 13.2537 15.495 16.5437L16.705 21.5338" stroke="#8C8C8C" stroke-miterlimit="10" stroke-linecap="round" stroke-linejoin="round"/>
</svg>
