<svg width="25" height="25" viewBox="0 0 25 25" fill="none" xmlns="http://www.w3.org/2000/svg">
<path d="M14.2451 9.89375V12.7937H16.8451C17.0451 12.7937 17.1451 12.9938 17.1451 13.1938L16.7451 15.0938C16.7451 15.1938 16.5451 15.2937 16.4451 15.2937H14.2451V22.5938H11.2451V15.3938H9.54512C9.34512 15.3938 9.24512 15.2938 9.24512 15.0938V13.1938C9.24512 12.9938 9.34512 12.8938 9.54512 12.8938H11.2451V9.59375C11.2451 7.89375 12.5451 6.59375 14.2451 6.59375H16.9451C17.1451 6.59375 17.2451 6.69375 17.2451 6.89375V9.29375C17.2451 9.49375 17.1451 9.59375 16.9451 9.59375H14.5451C14.3451 9.59375 14.2451 9.69375 14.2451 9.89375Z" stroke="#8C8C8C" stroke-miterlimit="10" stroke-linecap="round"/>
<path d="M15.2451 22.5938H9.24512C4.24512 22.5938 2.24512 20.5938 2.24512 15.5938V9.59375C2.24512 4.59375 4.24512 2.59375 9.24512 2.59375H15.2451C20.2451 2.59375 22.2451 4.59375 22.2451 9.59375V15.5938C22.2451 20.5938 20.2451 22.5938 15.2451 22.5938Z" stroke="#8C8C8C" stroke-linecap="round" stroke-linejoin="round"/>
</svg>
