<svg width="20" height="20" viewBox="0 0 20 20" fill="none" xmlns="http://www.w3.org/2000/svg">
<g clip-path="url(#clip0_418_1112)">
<path d="M15.61 1.03003H4.39004C2.67796 1.03003 1.29004 2.41795 1.29004 4.13003V15.92C1.29004 17.6321 2.67796 19.02 4.39004 19.02H15.61C17.3221 19.02 18.71 17.6321 18.71 15.92V4.13003C18.71 2.41795 17.3221 1.03003 15.61 1.03003Z" fill=""/>
<path d="M10 7.52C9.51 7.52 9.03 7.67 8.62 7.94C8.21 8.21 7.89 8.6 7.71 9.05C7.52 9.5 7.47 10 7.57 10.48C7.67 10.96 7.9 11.4 8.25 11.75C8.6 12.1 9.04 12.33 9.52 12.43C10 12.53 10.5 12.48 10.95 12.29C11.4 12.1 11.79 11.78 12.06 11.38C12.33 10.97 12.48 10.49 12.48 10C12.48 9.67 12.42 9.35 12.29 9.05C12.17 8.75 11.98 8.48 11.75 8.25C11.52 8.02 11.25 7.84 10.95 7.71C10.65 7.59 10.33 7.52 10 7.52ZM19.93 5.07C19.93 4.3 19.78 3.53 19.51 2.81C19.31 2.28 19 1.8 18.6 1.4C18.2 1 17.72 0.69 17.19 0.49C16.47 0.22 15.7 0.08 14.93 0.07C13.64 0 13.26 0 10 0C6.74 0 6.36 0 5.07 0.07C4.3 0.07 3.53 0.22 2.81 0.49C2.28 0.69 1.8 1 1.4 1.4C1 1.8 0.69 2.28 0.49 2.81C0.22 3.53 0.08 4.3 0.07 5.07C0 6.36 0 6.74 0 10C0 13.26 0 13.64 0.07 14.93C0.08 15.7 0.22 16.47 0.49 17.2C0.69 17.73 1 18.2 1.4 18.6C1.8 19 2.28 19.31 2.81 19.51C3.53 19.78 4.3 19.92 5.07 19.93C6.36 20 6.74 20 10 20C13.26 20 13.64 20 14.93 19.93C15.7 19.93 16.47 19.78 17.19 19.51C17.72 19.31 18.2 19 18.6 18.6C19 18.2 19.31 17.73 19.51 17.2C19.78 16.47 19.92 15.71 19.93 14.93C20 13.64 20 13.26 20 10C20 6.74 20 6.36 19.93 5.07ZM17.39 13.07C17.36 13.69 17.23 14.3 17 14.87C16.81 15.35 16.52 15.79 16.15 16.15C15.78 16.52 15.35 16.8 14.87 17C14.29 17.21 13.68 17.33 13.06 17.35H6.94C6.32 17.33 5.71 17.21 5.13 17C4.63 16.82 4.19 16.52 3.82 16.14C3.46 15.78 3.18 15.35 3 14.87C2.79 14.29 2.67 13.68 2.66 13.06V6.94C2.67 6.32 2.79 5.71 3 5.13C3.18 4.63 3.48 4.19 3.86 3.82C4.22 3.46 4.65 3.18 5.13 3C5.71 2.79 6.32 2.67 6.94 2.65H13.06C13.68 2.67 14.29 2.79 14.87 3C15.37 3.18 15.81 3.48 16.18 3.86C16.54 4.22 16.82 4.65 17 5.13C17.21 5.71 17.33 6.32 17.35 6.94V10C17.35 12.06 17.42 12.27 17.39 13.06V13.07ZM15.79 5.64C15.67 5.32 15.48 5.02 15.24 4.78C15 4.54 14.7 4.35 14.38 4.23C13.94 4.08 13.47 4 13 4.01H7C6.53 4.01 6.06 4.1 5.62 4.27C5.3 4.38 5.01 4.56 4.77 4.8C4.53 5.04 4.34 5.32 4.21 5.63C4.06 6.08 3.99 6.54 4 7.01V13.01C4 13.48 4.1 13.95 4.26 14.39C4.38 14.71 4.57 15.01 4.81 15.25C5.05 15.49 5.35 15.68 5.67 15.8C6.1 15.96 6.55 16.04 7 16.06H13C13.47 16.06 13.94 15.97 14.38 15.8C14.7 15.68 15 15.49 15.24 15.25C15.48 15.01 15.67 14.71 15.79 14.39C15.96 13.95 16.05 13.48 16.05 13.01V7C16.05 6.53 15.96 6.06 15.79 5.62V5.64ZM10 13.84C9.5 13.84 9 13.74 8.54 13.55C8.08 13.36 7.66 13.08 7.3 12.72C6.95 12.37 6.67 11.94 6.47 11.48C6.28 11.02 6.18 10.52 6.18 10.02C6.18 9.26 6.4 8.53 6.82 7.9C7.24 7.27 7.84 6.78 8.54 6.49C9.24 6.2 10.01 6.13 10.75 6.27C11.49 6.42 12.17 6.78 12.71 7.32C13.24 7.86 13.61 8.54 13.75 9.28C13.9 10.02 13.82 10.79 13.53 11.49C13.24 12.19 12.75 12.78 12.12 13.2C11.49 13.62 10.75 13.84 10 13.84ZM14 6.95C13.78 6.93 13.57 6.82 13.43 6.66C13.28 6.49 13.2 6.28 13.2 6.06C13.2 5.84 13.28 5.62 13.43 5.46C13.58 5.29 13.78 5.19 14 5.17C14.22 5.19 14.43 5.3 14.57 5.46C14.72 5.63 14.8 5.84 14.8 6.06C14.8 6.28 14.72 6.5 14.57 6.66C14.42 6.83 14.22 6.93 14 6.95Z" fill="#8C8C8C"/>
</g>
<defs>
<clipPath id="clip0_418_1112">
<rect width="20" height="20" fill="white"/>
</clipPath>
</defs>
</svg>
